# xmcd
#
# Track frame offsets: 
#        150
#        8396
#        20912
#        44251
#        65304
#        90997
#        109364
#        132335
#        149330
#
# Disc length: 2275 seconds
#
# Revision: 0
# Processed by: cddbd v1.5.2PL0 Copyright (c) Steve Scherf et al.
# Submitted via: ExactAudioCopy v0.99pb5
#
DISCID=7208e109
DTITLE=Heads, Hands and Feet  - Old Soldiers Never Die (1973)  FLAC
DYEAR=1900
DGENRE=
TTITLE0=Jack Of All Trades
TTITLE1=Meal Ticket
TTITLE2=I Won't Let You Down
TTITLE3=Soft Word Sunday Morning
TTITLE4=One Woman
TTITLE5=Just Another Ambush
TTITLE6=Stripes
TTITLE7=Taking My Music To The Man
TTITLE8=Another Useless Day
EXTD=
EXTT0=
EXTT1=
EXTT2=
EXTT3=
EXTT4=
EXTT5=
EXTT6=
EXTT7=
EXTT8=
PLAYORDER=
